<svg width="142" height="142" viewBox="0 0 142 142" fill="none" xmlns="http://www.w3.org/2000/svg">
<path fill-rule="evenodd" clip-rule="evenodd" d="M34.22 4.16992C34.75 14.1699 34.59 20.7399 33.03 27.4399C28.36 47.5299 25.73 43.2899 35.34 60.9999L37.59 68.4799L39 72.8099L37.88 82.3099L51.09 81.7299L55.59 88.0599L78.9 95.8299L80.9 92.6599L88.49 91.7999L100.57 92.0899H101.97L104.22 89.2099L108.72 93.8099L110.97 84.8899L121.97 86.3299L114 73.0999V65.8999L113.72 59.2799L112.31 54.6799L102.31 44.6799H102.61L108.12 49.9999C109.729 43.9813 109.907 37.6697 108.64 31.5699C106.09 20.7999 106.72 18.0599 108.64 4.56992C98.89 18.4599 102.09 27.4899 96.22 42.3699L95.47 41.9999L72.15 42.5799L57.15 46.4099C58.95 45.0999 57.69 40.8199 55.36 34.8899C51.31 24.5599 44.66 9.19992 34.22 4.16992Z" fill="#2A363E"/>
<path fill-rule="evenodd" clip-rule="evenodd" d="M29.29 47.2391L29.44 49.7891L29.72 50.6491C34.58 59.5991 36 63.4991 39 72.8091L37.88 82.3091L47.41 81.8891C44.92 75.8891 44.31 74.3991 48.92 69.8891L51.45 70.1891C56.58 70.8091 53.04 75.6291 50.45 77.7991L55.09 79.7991L65.49 83.1091L58.49 79.2291C66.54 79.5491 67.83 80.0191 75.77 81.9591L77.46 85.6991L77.3 82.3891L78.14 77.4991L69.29 78.0791L58 75.9191L58.56 73.3291L58.8 65.6091L54.8 65.1291C50.5 67.2391 50.8 67.9491 46.65 65.7091L51.57 58.2291L48.06 61.2291L44.83 63.2291C35.38 58.5991 35.07 55.8291 29.94 46.5391L29.28 47.2091L29.29 47.2391ZM80.66 78.2891C81.66 84.2291 81.21 86.8691 88.32 88.5791C82.98 90.0591 80.87 90.4091 78.13 93.5791C77.93 88.7791 78.13 82.3391 80.66 78.2591V78.2891ZM108.9 63.5791C104.09 67.5791 100.61 69.3991 96.33 75.6291L94.08 77.2791L93.17 77.5691L93.94 74.7591L94.57 70.8791L94.71 70.6591L94.92 67.1291C99.64 72.1291 101.92 64.1291 108.92 63.5691L108.9 63.5791ZM88.32 71.4591L87 74.6191C84.88 77.4291 83.28 76.7191 80.19 75.3391L79.35 74.8391H78.84L76.31 74.6191C68.15 68.4991 68.39 68.4691 58.89 64.5491C69.2 65.9991 72.51 70.4291 79 71.8191L80.48 69.3691V69.7991C82.28 74.7891 84.55 74.3291 88.32 71.4591Z" fill="#0B151A"/>
<path fill-rule="evenodd" clip-rule="evenodd" d="M39.6301 83.7389C50.0701 76.4789 52.3701 80.8289 62.6301 85.1789L56.4801 85.9989C67.6201 88.7689 69.8901 89.9989 79.4801 96.0689L85.6601 101.829L92.1201 104.709H101.12L102.33 103.899L107.33 98.0989C108.63 92.7889 109.33 88.4989 111.26 83.4189L107.89 84.8589C115.25 77.8589 116.53 80.8589 124.19 86.8589L125.33 94.9989L124.21 100.469L121.12 105.939L119.12 106.799V113.419L114.34 118.309L111.53 120.309L113.22 125.779L112.1 130.099L104.79 137.869H101.42L90.7701 136.399L84.0001 136.999L77.0001 140.449L70.5301 138.999L67.4401 134.679L63.7901 123.999L53.1801 121.999L40.1801 114.669C30.8101 101.459 30.0001 95.1189 39.6301 83.7389Z" fill="#CC7929"/>
<path fill-rule="evenodd" clip-rule="evenodd" d="M120.62 98.0596L120.69 94.4596L120.62 91.7996L119.14 94.3196C118.14 86.9296 118.56 82.4296 111.69 88.6396L113.94 87.8496C111.878 89.8438 110.019 92.0379 108.39 94.3996L108.09 93.5896L111.62 82.3696C114.71 81.4596 116.29 81.6696 117.89 83.0796C119.936 84.9288 121.312 87.4031 121.804 90.1165C122.296 92.8299 121.876 95.6298 120.61 98.0796L120.62 98.0596ZM63.0701 84.9996C54.4301 80.9996 50.2301 81.4096 44.0701 89.5996C47.8501 87.5996 47.9201 87.6496 51.9401 86.7196C42.5301 92.7196 47.1001 95.4196 47.8701 105.42C49.0301 96.5396 45.8201 96.4796 50.4001 90.5796C53.0901 87.1196 56.4801 87.4396 60.5101 87.4396L57.7001 86.1496L63.0701 84.9996ZM89.3201 123.14C94.0301 121.66 95.8901 121.74 99.7801 122.57C103.18 123.29 106.15 124.12 109.62 124.57L109.83 124.64C110.188 125.339 110.38 126.111 110.392 126.896C110.404 127.682 110.236 128.46 109.9 129.17C106.24 131.4 105.38 131.5 101.19 132.17C104.43 130.34 104.8 130.46 106.95 127.71L106.53 126.42C104.246 125.887 102.031 125.092 99.9301 124.05C95.4001 122.79 93.8601 122.96 89.3201 123.11V123.14ZM62.0001 88.4896C70.5701 91.7096 71.1301 91.4896 75.2901 95.2296C78.8301 98.4096 85.6801 104.95 80.1201 108.63C79.6801 108.8 79.4801 109.03 79.2801 109.06C73.2001 108.54 73.0101 101.5 72.5401 96.6896L71.8401 99.1396C67.8301 91.9996 69.2001 93.9996 62.0001 88.4896ZM114.76 96.1196C111.71 101.85 112.83 105.28 109.91 110.22L111.6 109.5C108.47 114.22 108.24 114.23 102.75 114.9C106.6 115.67 110.02 117.16 113.43 114.54C115.85 112.68 116.43 110.61 115.11 106.48C113.43 101.2 113.55 101.49 114.79 96.1096L114.76 96.1196Z" fill="#D89C28"/>
<path fill-rule="evenodd" clip-rule="evenodd" d="M39.0002 83.7394C39.6202 83.3094 46.3402 81.0395 46.9102 80.6895L40.2702 90.9995C37.7502 99.4095 36.4802 103.059 45.4202 111.999C45.4202 111.999 52.2802 115.249 57.7402 115.999C57.7701 112.087 58.6397 108.227 60.2902 104.679C60.1302 101.739 61.8702 99.3094 60.2102 93.9494C62.4202 98.3894 61.8402 96.2694 63.0702 99.4494C64.8702 104.079 64.4502 101.389 67.9502 112.609C73.5302 119.059 78.1202 117.609 84.6502 113.359L82.5402 116.529C87.5402 112.399 89.3002 111.899 85.7702 106.309L82.4102 101.999L87.8102 103.069L91.5402 104.729H100.54L101.6 104.459C97.7902 109.099 95.3402 111.409 101.13 114.659C104.47 116.529 108.63 117.379 111.97 116.029C115.31 114.679 116.18 112.639 117.67 108.469C116.41 102.559 113.91 100.049 116.27 94.7995C118.63 102.709 120.42 101.389 124.34 96.7195L123.58 100.419L121.1 106.829L118.7 108.999L118.52 113.379V113.449L113.78 118.299L110.97 120.299L112.66 125.769L111.54 130.089L104.23 137.859H100.86L90.1402 136.399L83.4002 136.979L76.4002 140.429L69.9002 138.999L66.8102 134.679L63.1602 123.999L53.1602 121.929L38.0002 113.429C32.6402 101.429 28.6802 99.9694 35.3502 87.7694L39.0002 83.7694V83.7394ZM99.2002 126.259C95.7902 126.809 90.9802 126.889 88.5202 129.569C88.5202 132.739 96.5202 130.819 98.4202 130.649L96.4202 133.379C101.81 133.379 108.68 132.379 111.87 127.479V123.599L111.59 122.599C105.59 122.859 94.2302 119.769 90.0802 122.399C84.7323 125.807 78.3861 127.298 72.0802 126.629L68.5702 126.199C70.4802 132.079 70.9202 132.969 76.7202 134.689L75.3202 132.819L78.0002 133.279C79.6902 133.579 83.6202 130.629 86.4202 128.669C91.1102 125.429 93.8502 125.729 99.2002 126.259Z" fill="#B55E27"/>
<path fill-rule="evenodd" clip-rule="evenodd" d="M60.0001 65.2691L59.0701 70.7191L60.0701 75.4691C66.2801 78.2091 71.4101 80.3991 77.2101 75.7591C69.3201 67.3991 66.8801 63.6891 60.0001 65.2691ZM96.8601 73.5991C102.35 67.4591 106.32 62.7091 112.86 64.9691L112.72 70.5791L112.65 73.9991L106.89 75.7291L102.54 76.1591L99.3101 75.8691L96.8601 73.5991Z" fill="white"/>
<path fill-rule="evenodd" clip-rule="evenodd" d="M72.9102 77.4891C64.6802 76.1291 59.7902 66.3591 68.1302 67.0991L64.6502 66.4391L63.2302 66.3691L60.1502 66.4391C57.1502 76.8991 63.5202 78.4391 72.9102 77.4891ZM112.07 72.2991L111.93 72.6691C111.45 73.5791 111.06 74.2991 110.74 74.8791L106.93 76.0691L102.6 76.5191L99.3902 76.2191L97.0002 73.8391C101.87 71.0391 100.25 68.4891 105.6 67.0491C104.37 68.9278 103.284 70.8967 102.35 72.9391C101 75.2691 104.29 76.7191 112.07 72.2991Z" fill="#E0DEDF"/>
<path fill-rule="evenodd" clip-rule="evenodd" d="M36.8402 9.16047C39.4302 23.0505 35.3202 30.7005 35.6002 37.1605C35.9902 46.0405 34.6002 50.5505 45.2602 59.0705L45.4002 54.0705H46.1002L46.5702 54.4805C49.4502 36.5705 44.8302 16.2605 36.8202 9.17047L36.8402 9.16047ZM107.56 49.1605L111.93 54.2605C123.14 43.1305 121.19 45.4805 115.47 30.9305C112.41 23.1505 109.28 13.2305 109.12 5.48047L108.49 5.91047V6.64047C108.536 6.97858 108.495 7.32283 108.37 7.64047L107 15.3305V18.6005L108 24.6005C108.309 25.6203 108.434 26.6868 108.37 27.7505L109.48 33.7505C109.66 34.6221 109.743 35.5107 109.73 36.4005V40.0505C109.701 41.1041 109.617 42.1554 109.48 43.2005L107.56 49.1605Z" fill="#EEA293"/>
<path fill-rule="evenodd" clip-rule="evenodd" d="M82.5702 99L80.6702 96.48L81.3702 93.24L81.7202 93.1L86.3602 92.16L96.7602 92.81H97.1802L104.77 91.01L105.33 90C105.504 89.9882 105.678 90.0297 105.828 90.1191C105.978 90.2084 106.097 90.3412 106.17 90.5L107.86 92.87C107.871 92.9869 107.858 93.1048 107.822 93.2165C107.786 93.3282 107.727 93.4314 107.65 93.52L107 95.13C106.783 95.4257 106.64 95.7683 106.58 96.13L105.58 98.07L105.3 98.21L101.16 98.07C100.578 97.9668 99.9902 97.8933 99.4002 97.85H88.5402C88.0502 97.85 87.7402 97.92 87.3502 97.92L82.5702 99Z" fill="#111D24"/>
<path fill-rule="evenodd" clip-rule="evenodd" d="M87.6401 44.3796C95.4301 44.6996 97.3501 44.5796 99.9501 47.3796C101.29 48.8196 102.8 51.0396 105.39 54.4796C111.01 59.9096 101.6 61.2796 96.0801 62.8596C100.64 59.4396 102.16 58.6696 98.0801 50.7596L99.8101 51.2896C96.7301 45.3596 93.5401 45.6796 87.6101 44.3696L87.6401 44.3796ZM46.3801 19.8496C50.6401 27.0396 53.0701 31.3096 55.7601 39.3396C57.4101 44.2696 58.4601 43.7996 54.7601 50.4196C59.5701 49.1496 59.0001 49.9996 62.2001 46.5396C72.7201 44.2496 74.1101 45.6696 83.1301 48.9896C77.0201 47.9896 71.1301 46.3696 65.1301 48.4096C61.9001 51.4096 60.8201 52.3096 56.8401 54.1696L57.1201 52.5896C55.3731 53.2219 53.5899 53.7495 51.7801 54.1696C56.4001 41.1696 50.6901 36.1696 46.3501 19.8496H46.3801ZM113.17 75.6796C107.48 77.5596 106.06 78.1496 99.8901 77.6196C104 78.9996 103.28 78.8096 107.48 78.9996L105.58 80.0796C109.49 81.0796 109.8 80.7196 113.38 79.7196L117.24 81.0896L113.17 75.6896V75.6796ZM92.6201 65.6096C93.3201 69.3096 94.5501 72.9596 93.0401 76.4696L89.6001 76.8296C92.6901 73.0096 92.6001 70.6196 92.6001 65.6096H92.6201ZM82.3001 73.1596C88.3001 73.7196 88.1201 70.9196 86.8001 65.2496C86.1001 70.0596 86.5901 70.6396 81.8801 71.2496L82.3001 73.1196V73.1596ZM77.0001 66.5396V66.0796C75.1801 56.7496 63.4301 57.5396 56.0001 56.8696C65.3701 60.8696 67.8101 58.9896 76.9401 66.5296L77.0001 66.5396ZM95.3601 79.0596L99.4401 83.9996C102.23 88.8796 103.54 89.4296 98.0301 90.3296C93.5001 90.3296 88.6001 90.1996 84.1201 90.6196C88.7901 89.0596 91.9901 88.6196 96.3401 87.4496L96.9001 84.5696L95.3601 79.0596Z" fill="#33464C"/>
<path fill-rule="evenodd" clip-rule="evenodd" d="M36.59 27.7699C36.41 46.1499 31.16 47.2299 45.27 59.0899L45.41 54.0899L46.83 53.9999C48.39 50.9099 48.31 35.1299 42.83 21.1699C45.71 60.4999 37.43 49.9699 36.58 27.8099L36.59 27.7699ZM109.36 43.4999C109.88 43.9999 110.78 43.6399 112.52 41.7699C116.33 37.6699 114.46 33.6199 114.81 27.4699C121.23 39.1599 123.12 43.1599 111.94 54.2599L107.6 49.1999L109.36 43.4999Z" fill="#D6725E"/>
<path fill-rule="evenodd" clip-rule="evenodd" d="M36.6302 28.3301C35.7802 43.0801 35.0902 51.2101 43.9502 56.1501C42.0102 51.2301 40.9502 50.9101 43.0102 45.4801C43.5752 48.3308 45.0196 50.9328 47.1402 52.9201C47.5602 50.7701 48.0002 48.2401 47.4402 42.2601C48.9702 45.6301 50.8602 51.0601 49.3302 56.8401L46.6502 56.0001L46.9302 61.0001C30.1702 55.8701 32.9102 41.9001 36.6302 28.3301Z" fill="black"/>
<path fill-rule="evenodd" clip-rule="evenodd" d="M79.41 63.5799C77.86 60.4499 76.26 59.0099 77.76 58.4099C79.96 57.5299 83.98 57.5999 83.58 61.1399C83.548 61.3653 83.5046 61.5889 83.45 61.8099C82.74 64.1799 81.1 66.9999 79.41 63.5799Z" fill="#CC7929"/>
<path fill-rule="evenodd" clip-rule="evenodd" d="M94.8202 62.5593C95.9302 59.4393 96.4702 58.8093 94.8802 58.1893C92.5502 57.2893 89.4102 56.5393 90.3002 60.0893C90.3702 60.5793 90.5202 60.5393 90.5202 60.7593C91.5802 63.1393 93.6002 65.9993 94.8202 62.5593Z" fill="#CC7929"/>
<path fill-rule="evenodd" clip-rule="evenodd" d="M79.7501 57.9395C75.9101 58.1995 76.7501 59.9895 78.1901 62.4095C80.5401 66.4095 81.3001 66.4095 83.4001 62.7995C80.8301 64.9695 79.9201 63.7195 78.6501 61.4795C77.7201 59.7895 77.5001 59.2595 79.7501 57.9395Z" fill="black"/>
<path fill-rule="evenodd" clip-rule="evenodd" d="M92.6101 57.3398C88.6601 57.3398 89.0901 59.2498 90.4901 61.6598C92.8401 65.6598 93.4901 65.5498 95.2401 61.9398C92.9501 64.3298 92.2401 62.9398 90.9501 60.7198C90.0001 59.0498 90.2401 58.1998 92.6101 57.3398Z" fill="black"/>
<path fill-rule="evenodd" clip-rule="evenodd" d="M100.61 69.3998C100.635 69.9697 100.772 70.5291 101.013 71.0462C101.254 71.5632 101.595 72.0276 102.016 72.413C102.436 72.7983 102.929 73.0971 103.465 73.2921C104.001 73.4872 104.57 73.5747 105.14 73.5498C105.71 73.5248 106.269 73.3878 106.786 73.1467C107.303 72.9055 107.768 72.5649 108.153 72.1443C108.539 71.7236 108.837 71.2312 109.032 70.6951C109.228 70.159 109.315 69.5897 109.29 69.0198C109.29 68.2771 109.108 67.5457 108.76 66.8901C108.411 66.2344 107.906 65.6745 107.29 65.2598C104.06 66.3998 103.06 67.2298 100.61 69.3998Z" fill="url(#paint0_radial_388_30564)"/>
<path d="M104.84 71.5696C106.099 71.5696 107.12 70.513 107.12 69.2096C107.12 67.9062 106.099 66.8496 104.84 66.8496C103.581 66.8496 102.56 67.9062 102.56 69.2096C102.56 70.513 103.581 71.5696 104.84 71.5696Z" fill="black"/>
<path d="M106.81 68.9794C107.511 68.9794 108.08 68.3929 108.08 67.6694C108.08 66.9459 107.511 66.3594 106.81 66.3594C106.109 66.3594 105.54 66.9459 105.54 67.6694C105.54 68.3929 106.109 68.9794 106.81 68.9794Z" fill="white"/>
<path d="M102.61 70.6502C103.19 70.6502 103.66 70.1667 103.66 69.5702C103.66 68.9738 103.19 68.4902 102.61 68.4902C102.03 68.4902 101.56 68.9738 101.56 69.5702C101.56 70.1667 102.03 70.6502 102.61 70.6502Z" fill="white"/>
<path fill-rule="evenodd" clip-rule="evenodd" d="M74.4202 70.6003C74.2989 72.0255 73.631 73.3485 72.5565 74.2925C71.4819 75.2365 70.0839 75.7283 68.6549 75.665C67.226 75.6017 65.877 74.9882 64.8901 73.9529C63.9032 72.9175 63.355 71.5406 63.3602 70.1103C63.3554 69.1676 63.5817 68.2381 64.0193 67.4031C64.4568 66.568 65.0923 65.8529 65.8702 65.3203C70.0002 66.7703 71.3002 67.8303 74.4202 70.6003Z" fill="url(#paint1_radial_388_30564)"/>
<path d="M69.0401 73.3696C70.6473 73.3696 71.9501 72.022 71.9501 70.3596C71.9501 68.6972 70.6473 67.3496 69.0401 67.3496C67.433 67.3496 66.1301 68.6972 66.1301 70.3596C66.1301 72.022 67.433 73.3696 69.0401 73.3696Z" fill="black"/>
<path d="M66.5201 70.0607C67.4148 70.0607 68.1401 69.313 68.1401 68.3907C68.1401 67.4684 67.4148 66.7207 66.5201 66.7207C65.6254 66.7207 64.9001 67.4684 64.9001 68.3907C64.9001 69.313 65.6254 70.0607 66.5201 70.0607Z" fill="white"/>
<path d="M71.8703 72.1994C72.6103 72.1994 73.2103 71.5816 73.2103 70.8195C73.2103 70.0573 72.6103 69.4395 71.8703 69.4395C71.1302 69.4395 70.5303 70.0573 70.5303 70.8195C70.5303 71.5816 71.1302 72.1994 71.8703 72.1994Z" fill="white"/>
<path fill-rule="evenodd" clip-rule="evenodd" d="M37.2602 80.6295C32.2602 93.6295 26.6902 100.63 40.1302 116.01C49.8302 118.35 51.6202 123.22 61.9802 125.81C63.6902 130.07 65.1502 130.86 66.6202 136.03L68.1702 138.62C70.4202 140.52 75.3302 141.35 78.2902 141.35H79.2902C83.2902 139.21 85.6802 137.98 90.2902 137.47C95.5902 139.1 96.2902 139.63 101.39 139.63C104.6 139.63 111.47 133.54 113.89 130.85C116.03 128.66 113.89 123.58 112.77 121.35L118.77 116.6L119.89 113.72C119.7 112.04 120.01 112.5 119.82 110.82C126.73 103.74 126.9 89.5595 121.52 81.3895C119.52 78.3895 117.37 75.3895 114.98 72.3895C115.56 67.6095 117.11 60.5995 114.28 56.3895C124.11 41.6495 123.55 39.7195 116.01 26.2095C112.6 18.7195 112.38 11.0195 111.48 3.11951C111 -1.00049 109.31 -1.18049 106.07 3.61951C97.8902 15.7895 100.78 28.3395 94.0002 40.7695C80.0602 39.4095 75.1802 40.3295 61.6902 42.2095C54.1002 32.2095 52.5202 9.28951 34.6002 2.79951C31.0402 1.50951 28.6602 1.20951 31.0602 6.66951L31.3402 7.38951C35.3402 26.0895 30.2302 26.7095 27.3402 43.5395C26.6302 47.7095 27.6602 51.0395 31.8702 59.0495C37.3102 68.2095 38.4202 69.8895 37.2102 80.6295H37.2602ZM63.5702 116.45C65.2602 118.6 68.5702 124.22 71.6902 125.52C72.9848 126.062 74.4076 126.221 75.7902 125.98C75.8402 126.17 86.5802 120.58 92.8502 119.73C95.3902 119.39 107.37 124.09 110.46 124.09C110.954 126.017 111.049 128.024 110.74 129.99C108 131.81 103.96 135.23 101.19 136.32C100 136.32 95.5202 135.43 93.5402 135.1L93.4202 134.63L96.5502 132C89.9816 133.114 83.628 135.25 77.7202 138.33C73.2502 138.87 71.1102 136.85 68.4502 133.72C65.9502 125.84 64.7902 123.72 58.7602 118.18L60.5902 122.06C52.2802 117.74 49.7102 116.97 44.1202 114.31C41.9402 114.13 36.6102 104.98 36.1202 102.31C34.6602 93.3995 35.8402 92.1595 40.2302 85.7095C45.8702 81.9395 45.6902 80.7095 52.4002 80.0595C47.1002 78.6995 45.0702 78.6295 40.0402 81.0595C42.0002 70.7195 39.2802 66.1995 34.7302 57.1795V56.4595C26.1302 39.9595 40.5102 29.5495 34.7302 7.53951C42.4902 13.7595 44.9202 25.7495 47.2802 38.4595C48.2067 30.0507 46.8563 21.5475 43.3702 13.8395C50.8002 23.8395 51.8502 34.2095 55.7502 39.3795C57.8802 42.1995 57.7502 46.4895 54.2002 51.3795C57.9102 50.6895 59.6302 48.7395 61.2802 45.6995C70.8702 42.9995 74.3402 45.2995 84.0002 48.1095L78.6602 44.2295C88.3802 43.1595 91.7502 42.1595 101.14 45.5295C104.49 49.3295 107.8 53.7595 111.4 57.1795C112.4 59.2495 112.12 60.5295 111.82 62.7895C107.75 61.2595 102.65 66.6795 96.3702 73.0095L94.8302 67.6895C94.1202 72.8095 96.4002 75.0695 92.3502 76.7895C93.6801 77.1518 95.0948 77.0386 96.3502 76.4695C105.99 77.9495 104.71 77.5195 113.77 75.0295C115.65 77.7495 117.41 80.3795 119.14 83.0295C122.28 87.8995 123.42 103.76 118.78 107.92C116.63 103.7 115.46 101.17 115.46 96.2995C112.91 101.53 115.66 105.16 116.72 110.4C114.86 116.4 114.16 117.25 108.57 120.47C103.57 119.58 99.2302 117.26 94.5702 115.29C94.4768 113.083 94.3835 110.876 94.2902 108.67C99.5602 106.765 104.053 103.172 107.07 98.4495C109.07 95.4495 108.93 93.7195 107.71 91.3695C106.08 88.2295 101.65 84.5295 99.0702 82.0495C101.47 86.3195 105.78 90.2795 100.42 90.8595C95.7302 91.3695 93.6302 91.1095 88.0602 90.9495C83.4502 90.8195 78.6102 91.3995 78.2802 94.8495L74.9102 92.9995C80.0102 99.6995 83.6102 105 91.3502 108.54C91.5702 115.61 90.8002 115.04 85.0302 119.04C78.1802 122.47 76.1602 124.78 70.0302 120.77C65.9102 115.43 64.4802 113.77 64.4502 110.91C64.4502 108.96 64.1602 107.42 64.1602 104.37L63.8502 101.27L61.2202 94.8795C61.5802 98.4695 62.2202 100.46 62.0702 102.7C61.1502 108.09 61.5302 112.01 62.4202 114.55C62.5156 114.825 62.6467 115.088 62.8102 115.33C63.2202 115.93 63.6002 116.45 63.6002 116.45H63.5702ZM109.43 13.9995C110.43 36.2795 125.63 36.8295 113.09 51.9495C112.09 50.8695 109.79 48.8695 110.77 46.6895C116.24 34.5895 107.34 33.9295 109.43 13.9995ZM107.51 8.69951C102.51 23.2095 110.9 37.3795 107.13 45.5495C103.99 43.2495 102.13 41.7495 97.8802 40.9495C103.41 32.4195 102.07 15.2095 107.51 8.68951V8.69951ZM51.0002 67.9995C55.5202 60.7195 63.0002 62.6795 68.6002 65.2995C73.4102 67.5695 75.3502 69.9295 77.4102 73.8895H77.8302C80.0802 72.4495 79.7402 71.0695 80.0802 68.4195C80.8916 70.1223 81.2366 72.0098 81.0802 73.8895C84.5002 76.2295 85.8502 76.5595 87.8502 75.8895C85.0802 79.8895 82.2202 73.9795 78.8502 79.8895L77.4502 87.2295L76.7502 83.0595L76.8902 80.7595L77.1702 78.3095C73.4102 80.6295 65.5202 79.7695 61.3802 77.4395C57.9802 75.5195 57.8802 73.0495 58.2002 66.6595C55.1902 65.9995 54.0002 66.9995 51.0002 67.9995ZM60.1902 67.3795C65.7202 66.4595 72.1202 67.4895 75.7602 75.9095C70.9102 79.2195 57.4002 79.0895 60.0602 67.8095L60.1902 67.3795ZM100.45 126.48C98.9402 126.42 97.6202 126.24 96.0902 126.19L97.1402 126.84C97.1402 128.15 95.7602 128.34 94.3802 128.38C92.4728 128.371 90.5707 128.579 88.7102 129L90.7102 127.56C90.5058 127.619 90.2926 127.643 90.0802 127.63C88.2742 128.191 86.5126 128.886 84.8102 129.71C86.6052 127.412 89.1569 125.826 92.0114 125.232C94.866 124.639 97.8384 125.078 100.4 126.47L100.45 126.48ZM105.4 90.9995C107.55 92.5595 105.51 97.1595 104.56 97.3295L104.98 95.5295C100.11 96.4695 93.5402 96.7295 88.6802 95.5995C87.6002 95.4695 82.6802 94.2095 82.6802 96.5995C82.6802 96.9595 82.7035 97.3195 82.7502 97.6795L81.7502 96.5995C82.7502 93.6895 84.7502 93.0095 87.9602 92.9895C92.9602 92.9895 95.9602 93.6795 100.32 93.3495C102.68 93.1695 104.32 93.3495 105.42 90.9895L105.4 90.9995ZM99.7802 74.1695C102.31 67.8895 106.24 65.1695 110.23 65.8095C112.1 67.0295 112.62 72.9095 109.23 74.1095C102.86 76.3495 101 75.5395 99.7802 74.1595V74.1695Z" fill="black"/>
<path fill-rule="evenodd" clip-rule="evenodd" d="M51.8601 106.428L61.2001 105.608C63.5301 106.088 66.0301 110.718 62.4301 112.888L52.2501 112.998L51.8601 106.418V106.428ZM116.13 103.588L138.13 101.648C142.63 101.248 142.89 111.548 139.63 112.718L117.63 113.278L117.7 112.958V112.128L117.29 109.938L117.19 109.518L117.09 107.018L116.13 103.588Z" fill="black"/>
<path fill-rule="evenodd" clip-rule="evenodd" d="M137.21 102.529L116.65 104.469L117.33 106.919V107.059L134.11 106.819L126.32 107.819L139.66 107.999C139.73 104.999 139.41 103.369 137.21 102.529Z" fill="#1A1A1A"/>
<path fill-rule="evenodd" clip-rule="evenodd" d="M29.87 89.4979C41.87 91.2879 50.22 102.718 48.48 115.028C48.1085 117.922 47.1669 120.714 45.7097 123.243C44.2525 125.771 42.3086 127.985 39.9904 129.758C37.6722 131.53 35.0256 132.825 32.2037 133.569C29.3818 134.312 26.4406 134.488 23.55 134.088C11.55 132.298 3.20005 120.868 4.94005 108.558C5.31157 105.664 6.25316 102.871 7.71035 100.343C9.16755 97.815 11.1115 95.6006 13.4297 93.8282C15.7479 92.0559 18.3945 90.7606 21.2164 90.0173C24.0383 89.274 26.9795 89.0975 29.87 89.4979Z" fill="url(#paint2_radial_388_30564)"/>
<path fill-rule="evenodd" clip-rule="evenodd" d="M30.5001 85.0586C44.9101 87.1986 54.9001 100.909 52.8101 115.669C50.7201 130.429 37.3401 140.669 22.9201 138.519C8.50009 136.369 -1.47991 122.669 0.610086 107.909C2.70009 93.1486 16.0801 82.9086 30.5001 85.0586ZM29.7301 90.4786C26.9671 90.0965 24.1558 90.2657 21.4586 90.9764C18.7613 91.6872 16.2317 92.9255 14.0159 94.6197C11.8001 96.3138 9.94197 98.4304 8.54896 100.847C7.15594 103.263 6.25564 105.932 5.90009 108.699C5.05285 114.289 6.44623 119.988 9.77741 124.557C13.1086 129.126 18.1083 132.195 23.6901 133.099C26.4523 133.481 29.2629 133.312 31.9596 132.602C34.6562 131.892 37.1854 130.654 39.4011 128.961C41.6168 127.268 43.4751 125.153 44.8686 122.737C46.2621 120.322 47.1633 117.654 47.5201 114.889C48.3702 109.297 46.9781 103.595 43.6467 99.0239C40.3153 94.4527 35.3138 91.3817 29.7301 90.4786Z" fill="black"/>
<path fill-rule="evenodd" clip-rule="evenodd" d="M29.4901 92.2092C34.1371 92.9903 38.355 95.3982 41.3901 99.0027C44.4252 102.607 46.0797 107.174 46.0581 111.886C46.0365 116.598 44.34 121.149 41.2719 124.725C38.2039 128.302 33.964 130.671 29.3101 131.409C33.4786 129.963 37.0483 127.173 39.4582 123.477C41.868 119.781 42.9813 115.389 42.6229 110.992C42.2646 106.594 40.4549 102.44 37.4785 99.1835C34.5021 95.9266 30.5277 93.7511 26.1801 92.9992C24.3992 92.744 22.591 92.744 20.8101 92.9992C23.6018 92.0607 26.5748 91.7901 29.4901 92.2092Z" fill="white"/>
<path fill-rule="evenodd" clip-rule="evenodd" d="M38.6402 130.379C34.1599 133.558 28.6235 134.881 23.1902 134.069C11.3102 132.309 3.07019 120.999 4.80019 108.839C5.564 103.306 8.37593 98.2598 12.6802 94.6992C10.1966 96.4615 8.10059 98.7141 6.52167 101.318C4.94275 103.922 3.91442 106.822 3.50019 109.839C1.77019 121.999 10.0002 133.299 21.8802 135.069C24.8465 135.51 27.8725 135.32 30.7605 134.512C33.6485 133.704 36.3336 132.296 38.6402 130.379Z" fill="#1A1A1A"/>
<path fill-rule="evenodd" clip-rule="evenodd" d="M30.3502 86.0887C44.2102 88.1487 53.8102 101.329 51.8002 115.519C51.3186 119.002 50.1354 122.352 48.322 125.365C46.5086 128.378 44.1028 130.992 41.2502 133.049C46.3475 128.894 49.6813 122.963 50.5802 116.449C52.6002 102.259 43.0002 89.0787 29.1402 86.9987C22.7297 86.0472 16.2013 87.6407 10.9502 91.4387C13.6323 89.244 16.7437 87.6343 20.0846 86.713C23.4256 85.7916 26.9222 85.579 30.3502 86.0887Z" fill="#1A1A1A"/>
<defs>
<radialGradient id="paint0_radial_388_30564" cx="0" cy="0" r="1" gradientUnits="userSpaceOnUse" gradientTransform="translate(104.821 69.082) scale(3.9964 4.0788)">
<stop stop-color="#F16623"/>
<stop offset="1"/>
</radialGradient>
<radialGradient id="paint1_radial_388_30564" cx="0" cy="0" r="1" gradientUnits="userSpaceOnUse" gradientTransform="translate(68.795 70.2705) scale(5.0925 5.1975)">
<stop stop-color="#F16623"/>
<stop offset="1"/>
</radialGradient>
<radialGradient id="paint2_radial_388_30564" cx="0" cy="0" r="1" gradientUnits="userSpaceOnUse" gradientTransform="translate(36.3289 108.601) scale(24.6477 25.1559)">
<stop stop-color="white"/>
<stop offset="1" stop-color="#81D1E2"/>
</radialGradient>
</defs>
</svg>
